<?xml version="1.0" encoding="UTF-8"?>
<svg version="1.1" xmlns="http://www.w3.org/2000/svg" width="500" height="500">
<path d="M0 0 C165 0 330 0 500 0 C500 165 500 330 500 500 C335 500 170 500 0 500 C0 335 0 170 0 0 Z " fill="#000000" transform="translate(0,0)"/>
<path d="M0 0 C1.38529907 0.01522705 1.38529907 0.01522705 2.79858398 0.03076172 C20.77323061 0.43809231 35.10697841 7.81183719 47.8125 20.375 C48.43125 21.035 49.05 21.695 49.6875 22.375 C48.28806498 25.71294502 46.78553175 27.33118291 43.8359375 29.3984375 C43.06636719 29.945 42.29679687 30.4915625 41.50390625 31.0546875 C40.69824219 31.61414063 39.89257812 32.17359375 39.0625 32.75 C37.4864759 33.86126576 35.91095172 34.97324088 34.3359375 36.0859375 C33.56088867 36.62573242 32.78583984 37.16552734 31.98730469 37.72167969 C29.0600483 39.82607249 26.26972427 42.08775836 23.49853516 44.39306641 C21.6875 45.375 21.6875 45.375 19.59936523 45.10498047 C17.29766972 44.22615662 15.25419386 43.11432773 13.125 41.875 C6.91904751 38.27491963 1.79485483 37.81496488 -5.3125 38.375 C-9.99591439 39.99290679 -12.93601164 41.98763687 -15.3125 46.375 C-15.98952548 51.35760326 -15.6974379 55.89023951 -14.4375 60.75 C-8.07821781 68.60558389 1.38757922 69.11000641 10.7878418 70.28637695 C27.15282547 72.37030202 39.9683451 77.67619086 51.6875 89.375 C52.265 89.94089844 52.8425 90.50679688 53.4375 91.08984375 C64.56921939 102.94628445 67.57056501 118.6175412 67.1015625 134.28515625 C66.06416324 151.5914552 57.13431441 165.95453928 44.4609375 177.3828125 C29.48189233 189.60952429 11.57546142 193.09034699 -7.3125 191.375 C-22.98361559 189.36597205 -37.72207054 181.99956034 -49.3125 171.375 C-49.951875 170.79234375 -50.59125 170.2096875 -51.25 169.609375 C-52.66548691 168.25941989 -54.00018565 166.8254527 -55.3125 165.375 C-55.3125 164.715 -55.3125 164.055 -55.3125 163.375 C-53.85058594 162.09741211 -53.85058594 162.09741211 -51.796875 160.65234375 C-51.04519043 160.11762451 -50.29350586 159.58290527 -49.51904297 159.03198242 C-48.70838379 158.46455322 -47.89772461 157.89712402 -47.0625 157.3125 C-45.41343082 156.14151408 -43.76499556 154.96963491 -42.1171875 153.796875 C-41.30217773 153.21873047 -40.48716797 152.64058594 -39.64746094 152.04492188 C-36.45843106 149.76418532 -33.3159349 147.42539421 -30.1875 145.0625 C-29.23617188 144.34449219 -28.28484375 143.62648438 -27.3046875 142.88671875 C-26.31855469 142.13841797 -26.31855469 142.13841797 -25.3125 141.375 C-22.45620404 142.67613265 -20.39039787 144.09088005 -18.125 146.25 C-10.58005942 152.73070686 -3.76890971 154.0615862 6.15625 153.75390625 C13.60435254 152.95471826 17.7540994 149.92051859 22.4609375 144.25390625 C26.16841384 138.57461924 26.51914978 132.97511418 25.6875 126.375 C23.68871505 119.60241799 20.33626243 115.11664586 14.25 111.54296875 C9.56241386 109.40640129 4.70961598 108.42587051 -0.3125 107.375 C-18.1003742 103.30113312 -35.41472959 98.23002687 -46.3125 82.375 C-53.20436013 69.67575308 -56.58775926 56.45226222 -53.62890625 42.046875 C-52.68528237 39.05546985 -51.58878963 36.23965008 -50.3125 33.375 C-49.91160156 32.45203125 -49.51070313 31.5290625 -49.09765625 30.578125 C-42.17521917 16.3720802 -29.58107012 7.10465197 -15.02734375 1.6796875 C-10.00303195 0.0842295 -5.23994041 -0.08356243 0 0 Z " fill="#FCFCFC" transform="translate(329.3125,150.625)"/>
<path d="M0 0 C7.87693441 4.50110538 7.87693441 4.50110538 10.953125 6.7421875 C11.645271 7.24403564 12.33741699 7.74588379 13.05053711 8.26293945 C13.77635986 8.79491943 14.50218262 9.32689941 15.25 9.875 C16.02287354 10.43727295 16.79574707 10.9995459 17.59204102 11.57885742 C22.57027053 15.20626091 27.53192175 18.8563492 32.49072266 22.51025391 C34.1101816 23.7031142 35.73093273 24.89422236 37.35302734 26.08349609 C40.76208402 28.5870777 44.15314899 31.09900337 47.46484375 33.73046875 C48.42519531 34.47941406 49.38554687 35.22835937 50.375 36 C51.16648438 36.639375 51.95796875 37.27875 52.7734375 37.9375 C54.94574786 39.24618837 54.94574786 39.24618837 57.27734375 38.55078125 C61.12116681 36.3614014 64.63479327 33.81762985 68.1875 31.1875 C69.80196341 30.00634648 71.41655024 28.82536165 73.03125 27.64453125 C73.85496094 27.03947754 74.67867188 26.43442383 75.52734375 25.81103516 C79.3976939 22.9762941 83.29355427 20.17718919 87.1875 17.375 C91.61062362 14.19015774 96.02228772 10.99274951 100.39453125 7.73828125 C101.43347534 6.96701904 101.43347534 6.96701904 102.4934082 6.18017578 C103.80103806 5.20744809 105.10572326 4.23074543 106.40698242 3.24951172 C110.77850917 0 110.77850917 0 113 0 C113 33.33 113 66.66 113 101 C75.71 101 38.42 101 0 101 C0 67.67 0 34.34 0 0 Z " fill="#FCFCFC" transform="translate(121,239)"/>
<path d="M0 0 C60.72 0 121.44 0 184 0 C184 6 184 6 182.15625 8.1328125 C180.84140625 9.11894531 180.84140625 9.11894531 179.5 10.125 C178.48679687 10.89972656 177.47359375 11.67445313 176.4296875 12.47265625 C175.28688369 13.31568109 174.14363979 14.1581096 173 15 C171.81395291 15.89300426 170.62908854 16.78758115 169.4453125 17.68359375 C166.80169927 19.67939086 164.14945985 21.66305559 161.4921875 23.640625 C156.54901274 27.32653794 151.6495819 31.06894349 146.75 34.8125 C138.98327054 40.74411253 131.17996923 46.62382463 123.34472656 52.46459961 C119.15221271 55.59979456 114.99612739 58.77205738 110.88671875 62.015625 C110.06518311 62.66321777 109.24364746 63.31081055 108.3972168 63.97802734 C106.8379225 65.2119327 105.28312918 66.45155473 103.73364258 67.69775391 C103.03779053 68.24866699 102.34193848 68.79958008 101.625 69.3671875 C101.01914063 69.85300293 100.41328125 70.33881836 99.7890625 70.83935547 C97.77834373 72.1437983 96.39247768 72.77808987 94 73 C92.22680664 72.08227539 92.22680664 72.08227539 90.41015625 70.59765625 C89.3735083 69.76886963 89.3735083 69.76886963 88.31591797 68.92333984 C87.57229004 68.3092627 86.82866211 67.69518555 86.0625 67.0625 C84.44242708 65.76304919 82.82128986 64.46492441 81.19921875 63.16796875 C80.35020996 62.48395996 79.50120117 61.79995117 78.62646484 61.09521484 C74.2647552 57.61573983 69.8200602 54.24690438 65.375 50.875 C64.48562744 50.19832275 63.59625488 49.52164551 62.67993164 48.82446289 C56.83826375 44.38294847 50.97491535 39.97124157 45.09716797 35.57763672 C39.53949335 31.41811923 34.01822739 27.21165707 28.5 23 C21.95044296 18.00358443 15.39545274 13.01486869 8.8125 8.0625 C8.14734375 7.56041016 7.4821875 7.05832031 6.796875 6.54101562 C3.53254892 4.06041337 3.53254892 4.06041337 0 2 C0 1.34 0 0.68 0 0 Z " fill="#FBFBFB" transform="translate(82,158)"/>
</svg>
